<svg width="10" height="12" viewBox="0 0 10 12" fill="none" xmlns="http://www.w3.org/2000/svg">
<path fill-rule="evenodd" clip-rule="evenodd" d="M2.5 0.6C2.5 0.268629 2.77982 0 3.125 0L6.875 0C7.22018 0 7.5 0.268629 7.5 0.6V1.2L9.375 1.2C9.72018 1.2 10 1.46863 10 1.8C10 2.13137 9.72018 2.4 9.375 2.4V10.2C9.375 11.1941 8.53553 12 7.5 12H2.5C1.46447 12 0.625 11.1941 0.625 10.2L0.625 2.4C0.279822 2.4 0 2.13137 0 1.8C0 1.46863 0.279822 1.2 0.625 1.2L2.5 1.2V0.6ZM4.375 4.2C4.375 3.86863 4.09518 3.6 3.75 3.6C3.40482 3.6 3.125 3.86863 3.125 4.2V9C3.125 9.33137 3.40482 9.6 3.75 9.6C4.09518 9.6 4.375 9.33137 4.375 9L4.375 4.2ZM6.875 4.2C6.875 3.86863 6.59518 3.6 6.25 3.6C5.90482 3.6 5.625 3.86863 5.625 4.2L5.625 9C5.625 9.33137 5.90482 9.6 6.25 9.6C6.59518 9.6 6.875 9.33137 6.875 9L6.875 4.2Z" fill="#B9B9B9"/>
</svg>
