<?xml version="1.0" encoding="UTF-8"?>
<svg xmlns="http://www.w3.org/2000/svg" xmlns:xlink="http://www.w3.org/1999/xlink" width="24px" height="21px" viewBox="0 0 24 21" version="1.1">
<g id="surface1">
<path style=" stroke:none;fill-rule:nonzero;fill:rgb(66.27451%,65.882353%,68.235294%);fill-opacity:1;" d="M 22.875 19.359375 L 8.625 19.359375 C 8.003906 19.359375 7.5 18.917969 7.5 18.375 L 7.5 14.4375 C 7.5 13.894531 8.003906 13.453125 8.625 13.453125 C 9.246094 13.453125 9.75 13.894531 9.75 14.4375 L 9.75 17.390625 L 21.75 17.390625 L 21.75 3.609375 L 9.75 3.609375 L 9.75 6.5625 C 9.75 7.105469 9.246094 7.546875 8.625 7.546875 C 8.003906 7.546875 7.5 7.105469 7.5 6.5625 L 7.5 2.625 C 7.5 2.082031 8.003906 1.640625 8.625 1.640625 L 22.875 1.640625 C 23.496094 1.640625 24 2.082031 24 2.625 L 24 18.375 C 24 18.917969 23.496094 19.359375 22.875 19.359375 Z M 22.875 19.359375 "/>
<path style=" stroke:none;fill-rule:nonzero;fill:rgb(39.215686%,76.470588%,49.019608%);fill-opacity:1;" d="M 16.875 9.515625 L 3.839844 9.515625 L 5.296875 8.242188 C 5.734375 7.859375 5.734375 7.234375 5.296875 6.851562 C 4.855469 6.464844 4.144531 6.464844 3.703125 6.851562 L 0.328125 9.804688 C 0.304688 9.828125 0.277344 9.851562 0.253906 9.875 C 0.246094 9.886719 0.234375 9.898438 0.226562 9.910156 C 0.210938 9.925781 0.199219 9.9375 0.191406 9.953125 C 0.179688 9.96875 0.167969 9.980469 0.160156 9.996094 C 0.152344 10.011719 0.140625 10.023438 0.132812 10.035156 C 0.125 10.050781 0.117188 10.066406 0.109375 10.082031 C 0.101562 10.09375 0.09375 10.109375 0.0859375 10.125 C 0.078125 10.136719 0.0742188 10.152344 0.0664062 10.167969 C 0.0625 10.183594 0.0546875 10.199219 0.046875 10.214844 C 0.0429688 10.230469 0.0390625 10.246094 0.0351562 10.261719 C 0.03125 10.277344 0.0273438 10.292969 0.0234375 10.308594 C 0.015625 10.324219 0.015625 10.34375 0.0117188 10.363281 C 0.0117188 10.375 0.0078125 10.390625 0.00390625 10.402344 C 0 10.46875 0 10.53125 0.00390625 10.597656 C 0.0078125 10.613281 0.0117188 10.625 0.0117188 10.640625 C 0.015625 10.65625 0.0195312 10.675781 0.0234375 10.691406 C 0.0234375 10.707031 0.03125 10.722656 0.0351562 10.742188 C 0.0390625 10.753906 0.0429688 10.769531 0.046875 10.785156 C 0.0546875 10.800781 0.0625 10.816406 0.0664062 10.832031 C 0.0742188 10.847656 0.078125 10.863281 0.0859375 10.875 C 0.09375 10.890625 0.101562 10.90625 0.109375 10.917969 C 0.117188 10.933594 0.125 10.949219 0.132812 10.964844 C 0.140625 10.976562 0.152344 10.992188 0.160156 11.003906 C 0.167969 11.019531 0.179688 11.03125 0.1875 11.046875 C 0.199219 11.0625 0.214844 11.074219 0.226562 11.089844 C 0.234375 11.101562 0.246094 11.113281 0.253906 11.125 C 0.277344 11.148438 0.304688 11.171875 0.328125 11.195312 L 3.703125 14.148438 C 3.925781 14.339844 4.210938 14.4375 4.5 14.4375 C 4.789062 14.4375 5.074219 14.339844 5.296875 14.148438 C 5.734375 13.765625 5.734375 13.140625 5.296875 12.757812 L 3.839844 11.484375 L 16.875 11.484375 C 17.496094 11.484375 18 11.042969 18 10.5 C 18 9.957031 17.496094 9.515625 16.875 9.515625 Z M 16.875 9.515625 "/>
</g>
</svg>
